Patient4_TMGait_0pt4_01_left_14_EMG.mot
version=1
nRows=13
nColumns=33
inDegrees=no
endheader
time	1LAddLong	2LGlutMax	3LGlutMed	4LIliopsoas	5LSemiMemb	6LBicFemLong	7LRecFem	8LVastMed	9LVastLat	10LGasMed	11LTibAnt	12lTibPost	13LPeroneusLong	14LSol	15LExtDigLong	16LFlexDigLong	17RAddLong	18RGlutMax	19RGlutMed	20RIliopsoas	21RSemiMemb	22RBicFemLong	23RRecFem	24RVastMed	25RVastLat	26RGasMed	27RTibAnt	28RTibPost	29RPeroneusLong	30RSol	31RExtDigLong	32RFlexDigLong
17.825	-0.008392	-0.16052	-0.2153	0.012512	0.030975	0.036316	-0.43655	0.011292	-0.12268	0.08667	-0.25497	0.035095	0.056305	0.20187	-0.079498	0.52978	-0.029144	0.040588	0.053253	0.07309	-0.06897	0.15564	0.37247	-0.078583	0.00824	-0.000305	0.16296	0.005188	0.16678	-0.077667	-0.002594	-0.000305
17.826	0.003204	-0.1355	-0.24551	0.023041	0.013275	-0.07843	-0.52933	0.023956	-0.10071	0.16861	-0.18967	-0.003204	-0.039063	-0.087433	-0.004272	0.44983	-0.046082	0.056	0.065613	0.019989	-0.16174	0.15732	0.34759	-0.045929	0.009155	-0.012054	-0.086823	0.008087	-0.13748	0.059357	-0.00473	-0.016327
17.827	0.013885	-0.095978	-0.15411	0.011749	-0.020905	-0.15106	-0.65674	0.006561	-0.036926	0.21881	-0.11719	-0.014038	-0.19012	-0.18204	-0.046387	0.09903	-0.050049	0.001068	0.10834	0.02655	-0.001831	0.056763	0.32074	0.009155	0.003967	-0.013885	-0.08194	0.000305	-0.074158	0.121	0.008545	-0.009766
17.828	0.014038	-0.056458	-0.17792	0.002747	-0.070953	-0.063477	-0.62882	0.003052	-0.014496	0.15076	-0.079498	-0.061951	-0.31479	0.19165	-0.09201	0.015106	-0.097046	-0.03891	0.062714	0.047302	0.13809	-0.08255	0.30563	0.042725	0.023346	-0.001526	-0.72983	0.003357	0.012817	0.06134	-0.00061	-0.00946
17.829	0.014191	0.056458	-0.15518	0.003357	-0.066376	0.007935	-0.52856	-0.007324	0.04715	0.005493	-0.077057	0.002441	-0.23239	0.32303	-0.07782	0.34332	-0.13336	-0.02594	0.11643	0.066071	0.10223	0.001984	0.26138	0.10666	0.041809	0.014954	-0.54657	0.003052	0.25559	-0.12863	-0.000153	0.002136
17.83	-0.001526	0.081787	0.057831	0	-0.020142	0.019836	-0.31464	-0.020905	0.088196	-0.006714	-0.079041	0.13901	-0.1619	0.35217	-0.084686	0.13687	-0.079956	-0.041046	0.22934	0.06012	0.098114	0.091858	0.30334	0.12405	0.047913	0.024719	0.44784	0.00885	0.10529	-0.29175	-0.001831	0.004883
17.831	0	0.06424	0.096283	0.002441	-0.009155	0.040741	-0.21286	-0.004425	0.058289	-0.021362	-0.044708	0.005188	-0.10986	0.095825	-0.12817	0.095673	-0.039368	-0.077362	0.27832	0.009613	0.075531	0.08255	0.30945	0.18692	0.053864	0.012817	0.75165	0.002899	-0.04837	-0.35812	-0.00412	-0.002899
17.832	-0.000458	0.028992	-0.050049	0.011902	-0.025024	0.025177	-0.26459	0.005798	0.033569	0.14587	-0.024261	-0.29663	0.044098	-0.070648	-0.13977	-0.11993	-0.006561	-0.17227	0.36209	-0.022125	0.068665	0.067596	0.31082	0.1799	0.061035	0.00351	1.5498	0.003357	0.022583	-0.21408	-0.010986	-0.011139
17.833	0.003052	0.11322	-0.048065	-0.000458	-0.0177	0.007019	-0.30258	-0.007019	0.067291	0.15259	-0.002441	-0.039215	0.23438	-0.19104	-0.112	-0.12894	0.006714	-0.19714	0.3862	-0.04715	0.063629	0.11841	0.39642	0.13107	0.012054	0.000153	0.77866	-0.004425	0.064697	-0.1387	-0.006866	-0.014496
17.834	-0.001678	0.11536	-0.048218	0.002289	-0.025635	0.036163	-0.32913	-0.005188	0.14725	0.070496	0.063477	-0.33478	0.29953	0.23056	0.058899	0.049286	0.014038	-0.18188	0.36743	-0.10483	0.068207	0.098419	0.43533	0.041351	-0.00946	0.005188	-0.46249	0.001984	0.21652	-0.054932	-0.001526	-0.013123
17.835	-0.000153	0.080109	-0.18127	0.013275	-0.045929	0.045471	-0.36346	-0.00061	0.17517	0.072327	0.082397	0.39459	0.24796	0.11231	0.097809	-0.20371	0.023956	-0.19745	0.28336	-0.23987	0.020599	0.11429	0.41855	0.041962	-0.007782	0.001831	-1.1174	-0.004578	0.20233	0.19867	-0.000916	-0.014648
17.836	-0.007477	0.10346	-0.20432	0.012054	-0.083923	0.012207	-0.37125	0.014954	0.15701	0.023041	0.067902	0.074463	0.12772	0.11932	0.045929	-0.011749	0.062866	-0.29556	0.20172	-0.28793	-0.047607	0.11414	0.37323	0.012054	-0.005493	-0.002441	-0.37109	-0.005951	0.081177	0.2536	-0.004272	-0.021057
17.837	-0.011597	0.1384	-0.052948	0.009003	-0.092621	0.015564	-0.39002	0.01236	0.07309	-0.055847	0.00824	-0.11459	0.064087	-0.38544	0.024872	-0.16861	0.072632	-0.26962	0.35339	-0.25497	-0.10162	0.11673	0.32669	0.020752	-0.011749	0.003357	-0.03891	0.001984	0.12436	0.22125	0.000305	-0.014343
